<mxfile host="app.diagrams.net" modified="2023-05-31T13:40:52.340Z" agent="Mozilla/5.0 (Windows NT 10.0; Win64; x64) AppleWebKit/537.36 (KHTML, like Gecko) Chrome/113.0.0.0 Safari/537.36" etag="H0ite9mpei5Z6ZdHYana" version="21.3.6" type="google">
  <diagram name="Page-1" id="iXw5dZIkFHEcRNifa9wC">
    <mxGraphModel grid="1" page="1" gridSize="10" guides="1" tooltips="1" connect="1" arrows="1" fold="1" pageScale="1" pageWidth="850" pageHeight="1100" math="0" shadow="0">
      <root>
        <mxCell id="0" />
        <mxCell id="1" parent="0" />
        <mxCell id="0uYZNclnkyDpTEmYSioa-1" value="" style="ellipse;html=1;shape=startState;fillColor=#000000;strokeColor=#ff0000;" vertex="1" parent="1">
          <mxGeometry x="60" y="10" width="30" height="30" as="geometry" />
        </mxCell>
        <mxCell id="0uYZNclnkyDpTEmYSioa-2" value="" style="edgeStyle=orthogonalEdgeStyle;html=1;verticalAlign=bottom;endArrow=open;endSize=8;strokeColor=#ff0000;rounded=0;entryX=0.5;entryY=0;entryDx=0;entryDy=0;" edge="1" parent="1" source="0uYZNclnkyDpTEmYSioa-1" target="0uYZNclnkyDpTEmYSioa-3">
          <mxGeometry relative="1" as="geometry">
            <mxPoint x="75" y="80" as="targetPoint" />
          </mxGeometry>
        </mxCell>
        <mxCell id="0uYZNclnkyDpTEmYSioa-5" style="edgeStyle=orthogonalEdgeStyle;rounded=0;orthogonalLoop=1;jettySize=auto;html=1;exitX=0.5;exitY=1;exitDx=0;exitDy=0;" edge="1" parent="1" source="0uYZNclnkyDpTEmYSioa-3" target="0uYZNclnkyDpTEmYSioa-6">
          <mxGeometry relative="1" as="geometry">
            <mxPoint x="75" y="180" as="targetPoint" />
          </mxGeometry>
        </mxCell>
        <mxCell id="0uYZNclnkyDpTEmYSioa-3" value="customer views order history (AD020)" style="rounded=1;whiteSpace=wrap;html=1;" vertex="1" parent="1">
          <mxGeometry x="15" y="70" width="120" height="60" as="geometry" />
        </mxCell>
        <mxCell id="0uYZNclnkyDpTEmYSioa-8" style="edgeStyle=orthogonalEdgeStyle;rounded=0;orthogonalLoop=1;jettySize=auto;html=1;exitX=0.5;exitY=1;exitDx=0;exitDy=0;" edge="1" parent="1" source="0uYZNclnkyDpTEmYSioa-6" target="0uYZNclnkyDpTEmYSioa-7">
          <mxGeometry relative="1" as="geometry" />
        </mxCell>
        <mxCell id="0uYZNclnkyDpTEmYSioa-6" value="selects order" style="rounded=1;whiteSpace=wrap;html=1;" vertex="1" parent="1">
          <mxGeometry x="17.5" y="170" width="115" height="40" as="geometry" />
        </mxCell>
        <mxCell id="0uYZNclnkyDpTEmYSioa-10" style="edgeStyle=orthogonalEdgeStyle;rounded=0;orthogonalLoop=1;jettySize=auto;html=1;exitX=0.5;exitY=1;exitDx=0;exitDy=0;" edge="1" parent="1" source="0uYZNclnkyDpTEmYSioa-7" target="0uYZNclnkyDpTEmYSioa-9">
          <mxGeometry relative="1" as="geometry" />
        </mxCell>
        <mxCell id="0uYZNclnkyDpTEmYSioa-7" value="clicks &quot;track shipment&quot;" style="rounded=1;whiteSpace=wrap;html=1;" vertex="1" parent="1">
          <mxGeometry x="12.5" y="250" width="125" height="40" as="geometry" />
        </mxCell>
        <mxCell id="0uYZNclnkyDpTEmYSioa-12" style="edgeStyle=orthogonalEdgeStyle;rounded=0;orthogonalLoop=1;jettySize=auto;html=1;exitX=0.5;exitY=1;exitDx=0;exitDy=0;" edge="1" parent="1" source="0uYZNclnkyDpTEmYSioa-9" target="0uYZNclnkyDpTEmYSioa-11">
          <mxGeometry relative="1" as="geometry" />
        </mxCell>
        <mxCell id="0uYZNclnkyDpTEmYSioa-9" value="view status of shipment" style="rounded=1;whiteSpace=wrap;html=1;" vertex="1" parent="1">
          <mxGeometry x="15" y="320" width="120" height="60" as="geometry" />
        </mxCell>
        <mxCell id="0uYZNclnkyDpTEmYSioa-11" value="" style="ellipse;html=1;shape=endState;fillColor=#000000;strokeColor=#ff0000;" vertex="1" parent="1">
          <mxGeometry x="60" y="420" width="30" height="30" as="geometry" />
        </mxCell>
      </root>
    </mxGraphModel>
  </diagram>
</mxfile>
